<svg width="1280" height="358" viewBox="0 0 1280 358" fill="none" xmlns="http://www.w3.org/2000/svg">
<path d="M0 81.68C0 36.57 36.57 0 81.68 0H275.76C320.872 0 357.442 36.57 357.442 81.68V275.76C357.442 320.872 320.872 357.442 275.76 357.442H81.68C36.57 357.442 0 320.872 0 275.76V81.68Z" fill="black"/>
<path d="M94.9458 262.496C94.9458 239.362 113.7 220.608 136.834 220.608H178.72V262.496C178.72 285.63 159.968 304.384 136.834 304.384C113.7 304.384 94.9458 285.63 94.9458 262.496Z" fill="#24CB71"/>
<path d="M178.72 53.058V136.832H220.608C243.742 136.832 262.496 118.08 262.496 94.946C262.496 71.812 243.742 53.058 220.608 53.058H178.72Z" fill="#FF7237"/>
<path d="M220.26 220.608C243.394 220.608 262.148 201.854 262.148 178.72C262.148 155.586 243.394 136.832 220.26 136.832C197.126 136.832 178.373 155.586 178.373 178.72C178.373 201.854 197.126 220.608 220.26 220.608Z" fill="#00B6FF"/>
<path d="M94.9458 94.946C94.9458 118.08 113.7 136.834 136.834 136.834H178.72V53.058H136.834C113.7 53.058 94.9458 71.812 94.9458 94.946Z" fill="#FF3737"/>
<path d="M94.9458 178.72C94.9458 201.854 113.7 220.608 136.834 220.608H178.72V136.834H136.834C113.7 136.834 94.9458 155.586 94.9458 178.72Z" fill="#874FFF"/>
<path d="M1200.77 301.97C1189.76 301.97 1179.87 299.84 1171.11 295.582C1162.57 291.324 1155.71 285.608 1150.54 278.436C1145.6 271.04 1143.13 262.522 1143.13 252.884C1143.13 240.334 1147.17 230.136 1155.26 222.29C1163.35 214.446 1174.93 209.068 1189.99 206.154L1229.43 198.084C1237.3 196.516 1242.69 194.05 1245.61 190.688C1248.53 187.326 1250 182.396 1250 175.896L1254.04 215.23L1197.4 227.334C1189.76 228.902 1183.81 231.704 1179.54 235.738C1175.49 239.774 1173.47 245.376 1173.47 252.548C1173.47 259.946 1176.28 265.884 1181.9 270.368C1187.74 274.85 1195.61 277.092 1205.49 277.092C1213.59 277.092 1221 275.298 1227.74 271.712C1234.71 268.126 1240.11 263.194 1243.93 256.92C1247.97 250.42 1250 243.024 1250 234.73V175.896C1250 167.826 1247.07 161.552 1241.23 157.068C1235.61 152.362 1227.86 150.008 1217.97 150.008C1205.38 150.008 1195.72 153.146 1188.98 159.422C1182.23 165.698 1178.3 174.55 1177.18 185.982L1147.51 181.948C1148.63 170.068 1152.23 159.87 1158.3 151.354C1164.36 142.612 1172.46 135.888 1182.57 131.182C1192.68 126.474 1204.71 124.122 1218.64 124.122C1238.42 124.122 1253.59 129.164 1264.15 139.25C1274.72 149.336 1280 162.336 1280 178.248V296.926H1250.67V275.074C1247.75 282.47 1241.79 288.858 1232.8 294.238C1224.04 299.392 1213.36 301.97 1200.77 301.97Z" fill="black"/>
<path d="M904.086 296.926V129.164H933.416V147.992C935.662 141.492 940.608 135.888 948.25 131.182C955.89 126.474 964.768 124.122 974.882 124.122C984.772 124.122 993.874 126.25 1002.19 130.508C1010.51 134.768 1015.9 141.156 1018.37 149.672C1021.29 141.828 1026.69 135.664 1034.55 131.182C1042.65 126.474 1051.64 124.122 1061.52 124.122C1078.61 124.122 1091.64 129.052 1100.63 138.914C1109.62 148.776 1114.12 163.12 1114.12 181.948V296.926H1084.11V185.982C1084.11 174.774 1081.64 166.37 1076.7 160.766C1071.98 154.94 1065.01 152.026 1055.79 152.026C1045.68 152.026 1037.81 155.612 1032.19 162.784C1026.8 169.732 1024.1 179.93 1024.1 193.378V296.926H994.098V185.982C994.098 174.774 991.626 166.37 986.682 160.766C981.962 154.94 974.994 152.026 965.78 152.026C955.666 152.026 947.8 155.612 942.18 162.784C936.786 169.732 934.09 179.93 934.09 193.378V296.926H904.086Z" fill="black"/>
<path d="M789.358 357.442C768.456 357.442 751.486 352.624 738.45 342.986C725.414 333.348 717.1 319.9 713.504 302.642L742.834 296.254C745.306 307.236 750.588 315.754 758.678 321.806C766.77 328.082 776.996 331.22 789.358 331.22C804.19 331.22 815.316 327.408 822.732 319.788C830.374 312.392 834.196 301.298 834.196 286.504V259.946C830.824 268.238 824.53 274.962 815.316 280.116C806.326 285.272 796.212 287.85 784.974 287.85C770.14 287.85 757.106 284.488 745.868 277.764C734.63 270.816 725.864 261.178 719.572 248.85C713.278 236.524 710.132 222.29 710.132 206.154C710.132 189.792 713.278 175.448 719.572 163.12C725.864 150.792 734.518 141.268 745.53 134.544C756.768 127.596 769.916 124.122 784.974 124.122C796.212 124.122 806.438 126.698 815.654 131.854C825.092 136.784 831.498 142.948 834.87 150.344V129.164H864.2V286.504C864.2 301.298 861.278 313.96 855.434 324.496C849.59 335.254 841.05 343.434 829.812 349.038C818.8 354.64 805.314 357.442 789.358 357.442ZM788.682 261.29C803.068 261.29 814.53 256.246 823.07 246.16C831.836 236.074 836.218 222.74 836.218 206.154C836.218 189.344 831.836 175.896 823.07 165.81C814.304 155.724 802.842 150.68 788.682 150.68C774.298 150.68 762.724 155.724 753.958 165.81C745.418 175.896 741.148 189.344 741.148 206.154C741.148 222.74 745.53 236.074 754.296 246.16C763.062 256.246 774.524 261.29 788.682 261.29Z" fill="black"/>
<path d="M649.58 296.73V129.164H679.586V296.926L649.58 296.73ZM649.244 107.648V59.908H679.922V107.648H649.244Z" fill="black"/>
<path d="M477.254 296.926V59.908H508.944V296.926H477.254ZM483.66 196.74V168.162H612.78V196.74H483.66ZM483.66 88.8199V59.908H625.254V88.8199H483.66Z" fill="black"/>
</svg>
