<?xml version="1.0" encoding="UTF-8"?>
<svg id="Layer_1" data-name="Layer 1" xmlns="http://www.w3.org/2000/svg" viewBox="112 0 29 53.7">
  <defs>
    <style>
      .cls-1 {
        fill: #0066fa;
      }
    </style>
  </defs>
  <path class="cls-1" d="M140.02,41.1c-.2-.2-.5-.4-.8-.3h-14.9l-1.1,2.4h16c.3,0,.6-.1.8-.3s.3-.6.3-.9c0-.4-.1-.7-.3-.9Z"/>
  <path class="cls-1" d="M140.02,26.7c-.2-.2-.5-.4-.8-.3h-8.6l-1.1,2.4h9.7c.3,0,.6-.1.8-.3.2-.2.3-.6.3-.9,0-.3-.1-.6-.3-.9Z"/>
  <path class="cls-1" d="M139.82,12.1c-.2-.2-.5-.4-.8-.3h-2.4l-1.1,2.5h3.5c.3,0,.6-.1.8-.3s.3-.6.3-.9c.1-.4,0-.8-.3-1Z"/>
  <path class="cls-1" d="M116.62,43h1l2.4-5.5h-3.3c-1.5,0-2.7,1.2-2.7,2.8,0,.7.3,1.4.8,1.9.4.5,1.1.8,1.8.8Z"/>
  <path class="cls-1" d="M116.62,30.2h6.4l2.4-5.5h-8.8c-1.5,0-2.7,1.2-2.7,2.8,0,.7.3,1.4.8,1.9.4.6,1.1.8,1.9.8Z"/>
  <path class="cls-1" d="M116.62,17.5c-.7,0-1.4-.3-1.9-.8s-.8-1.2-.8-2c0-1.5,1.2-2.7,2.7-2.7h15.5l-2.4,5.5h-13.1Z"/>
  <path class="cls-1" d="M126.62,27.4c-6.4,14.8-12.8,26.3-12.8,26.3,0,0,3.9-12.6,10.2-27.4,6.4-14.9,12.8-26.3,12.8-26.3,0,0-3.8,12.5-10.2,27.4Z"/>
</svg>